{
 "cells": [
  {
   "cell_type": "code",
   "execution_count": 2,
   "metadata": {},
   "outputs": [
    {
     "name": "stdout",
     "output_type": "stream",
     "text": [
      "root dir: /root/repositories/motion-wav2lip-codeformer\n",
      "CodeFormer dir: /root/repositories/motion-wav2lip-codeformer/CodeFormer\n",
      "Wav2Lip dir: /root/repositories/motion-wav2lip-codeformer/Wav2Lip\n",
      "images dir: /root/repositories/motion-wav2lip-codeformer/images\n",
      "input dir: /root/repositories/motion-wav2lip-codeformer/input\n",
      "output dir: /root/repositories/motion-wav2lip-codeformer/output\n",
      "CodeFormer->results dir: /root/repositories/motion-wav2lip-codeformer/CodeFormer/results\n",
      "Wav2Lip->result_voice.mp4 path: /root/repositories/motion-wav2lip-codeformer/Wav2Lip/results/result_voice.mp4\n",
      "input->audio path: /root/repositories/motion-wav2lip-codeformer/input/audio.wav\n",
      "input->video path: /root/repositories/motion-wav2lip-codeformer/input/video.mp4\n",
      "output->batch_0000.avi path: /root/repositories/motion-wav2lip-codeformer/output/batch_0000.avi\n",
      "output->final.mp4 path: /root/repositories/motion-wav2lip-codeformer/output/final.mp4\n"
     ]
    }
   ],
   "source": [
    "import os\n",
    "from pathlib import Path\n",
    "\n",
    "cwd = os.getcwd()\n",
    "root_dir = Path(cwd)\n",
    "codeformer_dir = root_dir / \"CodeFormer\"\n",
    "wav2lip_dir = root_dir / \"Wav2Lip\"\n",
    "images_dir = root_dir / \"images\"\n",
    "output_dir = root_dir / \"output\"\n",
    "input_dir = root_dir / \"input\"\n",
    "\n",
    "codeformer_results_dir = codeformer_dir / \"results\"\n",
    "wav2lip_result_voice_path = wav2lip_dir / \"results\" / \"result_voice.mp4\"\n",
    "\n",
    "input_audio_path = input_dir / \"audio.wav\"\n",
    "input_video_path = input_dir / \"video.mp4\"\n",
    "\n",
    "output_batch_avi_path = output_dir / \"batch_0000.avi\"\n",
    "output_final_mp4_path = output_dir / \"final.mp4\"\n",
    "\n",
    "CODEFORMER_FIDELITY = 0.75\n",
    "\n",
    "print(f\"root dir: {root_dir}\")\n",
    "print(f\"CodeFormer dir: {codeformer_dir}\")\n",
    "print(f\"Wav2Lip dir: {wav2lip_dir}\")\n",
    "print(f\"images dir: {images_dir}\")\n",
    "print(f\"input dir: {input_dir}\")\n",
    "print(f\"output dir: {output_dir}\")\n",
    "print(f\"CodeFormer->results dir: {codeformer_results_dir}\")\n",
    "print(f\"Wav2Lip->result_voice.mp4 path: {wav2lip_result_voice_path}\")\n",
    "print(f\"input->audio path: {input_audio_path}\")\n",
    "print(f\"input->video path: {input_video_path}\")\n",
    "print(f\"output->batch_0000.avi path: {output_batch_avi_path}\")\n",
    "print(f\"output->final.mp4 path: {output_final_mp4_path}\")\n"
   ]
  },
  {
   "cell_type": "code",
   "execution_count": 3,
   "metadata": {},
   "outputs": [],
   "source": [
    "%rm -rf $images_dir\n",
    "%mkdir $images_dir\n",
    "\n",
    "%rm -rf $codeformer_results_dir\n",
    "%mkdir $codeformer_results_dir"
   ]
  },
  {
   "cell_type": "code",
   "execution_count": 4,
   "metadata": {},
   "outputs": [
    {
     "name": "stdout",
     "output_type": "stream",
     "text": [
      "/root/repositories/motion-wav2lip-codeformer/Wav2Lip\n"
     ]
    },
    {
     "name": "stderr",
     "output_type": "stream",
     "text": [
      "/root/repositories/motion-wav2lip-codeformer/.venv/lib/python3.11/site-packages/IPython/core/magics/osm.py:417: UserWarning: using dhist requires you to install the `pickleshare` library.\n",
      "  self.shell.db['dhist'] = compress_dhist(dhist)[-100:]\n"
     ]
    },
    {
     "name": "stdout",
     "output_type": "stream",
     "text": [
      "Using cuda for inference.\n",
      "Reading video frames...\n",
      "Number of frames available for inference: 141\n",
      "/root/repositories/motion-wav2lip-codeformer/Wav2Lip/audio.py:100: FutureWarning: Pass sr=16000, n_fft=800 as keyword args. From version 0.10 passing these as positional arguments will result in an error\n",
      "  return librosa.filters.mel(hp.sample_rate, hp.n_fft, n_mels=hp.num_mels,\n",
      "(80, 563)\n",
      "Length of mel chunks: 207\n",
      "  0%|                                                     | 0/2 [00:00<?, ?it/s]\n",
      "  0%|                                                     | 0/9 [00:00<?, ?it/s]\u001b[A\n",
      " 11%|█████                                        | 1/9 [00:03<00:24,  3.05s/it]\u001b[A\n",
      " 22%|██████████                                   | 2/9 [00:03<00:09,  1.34s/it]\u001b[A\n",
      " 33%|███████████████                              | 3/9 [00:03<00:04,  1.28it/s]\u001b[A\n",
      " 44%|████████████████████                         | 4/9 [00:03<00:02,  1.93it/s]\u001b[A\n",
      " 56%|█████████████████████████                    | 5/9 [00:03<00:01,  2.68it/s]\u001b[A\n",
      " 67%|██████████████████████████████               | 6/9 [00:03<00:00,  3.51it/s]\u001b[A\n",
      " 78%|███████████████████████████████████          | 7/9 [00:03<00:00,  4.32it/s]\u001b[A\n",
      " 89%|████████████████████████████████████████     | 8/9 [00:03<00:00,  5.13it/s]\u001b[A\n",
      "100%|█████████████████████████████████████████████| 9/9 [00:04<00:00,  1.83it/s]\u001b[A\n",
      "Load checkpoint from: checkpoints/wav2lip_gan.pth\n",
      "Model loaded\n",
      "100%|█████████████████████████████████████████████| 2/2 [00:11<00:00,  5.82s/it]\n",
      "ffmpeg version 4.4.2-0ubuntu0.22.04.1 Copyright (c) 2000-2021 the FFmpeg developers\n",
      "  built with gcc 11 (Ubuntu 11.2.0-19ubuntu1)\n",
      "  configuration: --prefix=/usr --extra-version=0ubuntu0.22.04.1 --toolchain=hardened --libdir=/usr/lib/x86_64-linux-gnu --incdir=/usr/include/x86_64-linux-gnu --arch=amd64 --enable-gpl --disable-stripping --enable-gnutls --enable-ladspa --enable-libaom --enable-libass --enable-libbluray --enable-libbs2b --enable-libcaca --enable-libcdio --enable-libcodec2 --enable-libdav1d --enable-libflite --enable-libfontconfig --enable-libfreetype --enable-libfribidi --enable-libgme --enable-libgsm --enable-libjack --enable-libmp3lame --enable-libmysofa --enable-libopenjpeg --enable-libopenmpt --enable-libopus --enable-libpulse --enable-librabbitmq --enable-librubberband --enable-libshine --enable-libsnappy --enable-libsoxr --enable-libspeex --enable-libsrt --enable-libssh --enable-libtheora --enable-libtwolame --enable-libvidstab --enable-libvorbis --enable-libvpx --enable-libwebp --enable-libx265 --enable-libxml2 --enable-libxvid --enable-libzimg --enable-libzmq --enable-libzvbi --enable-lv2 --enable-omx --enable-openal --enable-opencl --enable-opengl --enable-sdl2 --enable-pocketsphinx --enable-librsvg --enable-libmfx --enable-libdc1394 --enable-libdrm --enable-libiec61883 --enable-chromaprint --enable-frei0r --enable-libx264 --enable-shared\n",
      "  libavutil      56. 70.100 / 56. 70.100\n",
      "  libavcodec     58.134.100 / 58.134.100\n",
      "  libavformat    58. 76.100 / 58. 76.100\n",
      "  libavdevice    58. 13.100 / 58. 13.100\n",
      "  libavfilter     7.110.100 /  7.110.100\n",
      "  libswscale      5.  9.100 /  5.  9.100\n",
      "  libswresample   3.  9.100 /  3.  9.100\n",
      "  libpostproc    55.  9.100 / 55.  9.100\n",
      "\u001b[0;33mGuessed Channel Layout for Input Stream #0.0 : mono\n",
      "\u001b[0mInput #0, wav, from '/root/repositories/motion-wav2lip-codeformer/input/audio.wav':\n",
      "  Duration: 00:00:07.03, bitrate: 352 kb/s\n",
      "  Stream #0:0: Audio: pcm_s16le ([1][0][0][0] / 0x0001), 22050 Hz, mono, s16, 352 kb/s\n",
      "Input #1, avi, from 'temp/result.avi':\n",
      "  Metadata:\n",
      "    software        : Lavf59.27.100\n",
      "  Duration: 00:00:06.92, start: 0.000000, bitrate: 291 kb/s\n",
      "  Stream #1:0: Video: mpeg4 (Simple Profile) (DIVX / 0x58564944), yuv420p, 256x256 [SAR 1:1 DAR 1:1], 280 kb/s, 29.93 fps, 29.92 tbr, 29.93 tbn, 2993 tbc\n",
      "Stream mapping:\n",
      "  Stream #1:0 -> #0:0 (mpeg4 (native) -> h264 (libx264))\n",
      "  Stream #0:0 -> #0:1 (pcm_s16le (native) -> aac (native))\n",
      "Press [q] to stop, [?] for help\n",
      "\u001b[1;36m[libx264 @ 0x556193326f40] \u001b[0m\u001b[0;33m-qscale is ignored, -crf is recommended.\n",
      "\u001b[0m\u001b[1;36m[libx264 @ 0x556193326f40] \u001b[0musing SAR=1/1\n",
      "\u001b[1;36m[libx264 @ 0x556193326f40] \u001b[0musing cpu capabilities: MMX2 SSE2Fast SSSE3 SSE4.2 AVX FMA3 BMI2 AVX2\n",
      "\u001b[1;36m[libx264 @ 0x556193326f40] \u001b[0mprofile High, level 1.3, 4:2:0, 8-bit\n",
      "\u001b[1;36m[libx264 @ 0x556193326f40] \u001b[0m264 - core 163 r3060 5db6aa6 - H.264/MPEG-4 AVC codec - Copyleft 2003-2021 - http://www.videolan.org/x264.html - options: cabac=1 ref=3 deblock=1:0:0 analyse=0x3:0x113 me=hex subme=7 psy=1 psy_rd=1.00:0.00 mixed_ref=1 me_range=16 chroma_me=1 trellis=1 8x8dct=1 cqm=0 deadzone=21,11 fast_pskip=1 chroma_qp_offset=-2 threads=8 lookahead_threads=1 sliced_threads=0 nr=0 decimate=1 interlaced=0 bluray_compat=0 constrained_intra=0 bframes=3 b_pyramid=2 b_adapt=1 b_bias=0 direct=1 weightb=1 open_gop=0 weightp=2 keyint=250 keyint_min=25 scenecut=40 intra_refresh=0 rc_lookahead=40 rc=crf mbtree=1 crf=23.0 qcomp=0.60 qpmin=0 qpmax=69 qpstep=4 ip_ratio=1.40 aq=1:1.00\n",
      "Output #0, mp4, to 'results/result_voice.mp4':\n",
      "  Metadata:\n",
      "    encoder         : Lavf58.76.100\n",
      "  Stream #0:0: Video: h264 (avc1 / 0x31637661), yuv420p(progressive), 256x256 [SAR 1:1 DAR 1:1], q=2-31, 29.92 fps, 11488 tbn\n",
      "    Metadata:\n",
      "      encoder         : Lavc58.134.100 libx264\n",
      "    Side data:\n",
      "      cpb: bitrate max/min/avg: 0/0/0 buffer size: 0 vbv_delay: N/A\n",
      "  Stream #0:1: Audio: aac (LC) (mp4a / 0x6134706D), 22050 Hz, mono, fltp, 69 kb/s\n",
      "    Metadata:\n",
      "      encoder         : Lavc58.134.100 aac\n",
      "frame=  207 fps=0.0 q=-1.0 Lsize=     165kB time=00:00:07.01 bitrate= 192.7kbits/s speed=50.6x    \n",
      "video:105kB audio:54kB subtitle:0kB other streams:0kB global headers:0kB muxing overhead: 4.001675%\n",
      "\u001b[1;36m[libx264 @ 0x556193326f40] \u001b[0mframe I:1     Avg QP:23.17  size:  5109\n",
      "\u001b[1;36m[libx264 @ 0x556193326f40] \u001b[0mframe P:139   Avg QP:23.42  size:   667\n",
      "\u001b[1;36m[libx264 @ 0x556193326f40] \u001b[0mframe B:67    Avg QP:28.64  size:   128\n",
      "\u001b[1;36m[libx264 @ 0x556193326f40] \u001b[0mconsecutive B-frames: 48.3% 24.2%  4.3% 23.2%\n",
      "\u001b[1;36m[libx264 @ 0x556193326f40] \u001b[0mmb I  I16..4:  0.4% 99.2%  0.4%\n",
      "\u001b[1;36m[libx264 @ 0x556193326f40] \u001b[0mmb P  I16..4:  0.0%  0.5%  0.0%  P16..4: 39.3% 14.0%  6.0%  0.0%  0.0%    skip:40.1%\n",
      "\u001b[1;36m[libx264 @ 0x556193326f40] \u001b[0mmb B  I16..4:  0.0%  0.0%  0.0%  B16..8: 31.6%  0.8%  0.1%  direct: 0.1%  skip:67.4%  L0:36.9% L1:60.2% BI: 2.8%\n",
      "\u001b[1;36m[libx264 @ 0x556193326f40] \u001b[0m8x8 transform intra:97.8% inter:87.0%\n",
      "\u001b[1;36m[libx264 @ 0x556193326f40] \u001b[0mcoded y,uvDC,uvAC intra: 95.1% 87.2% 20.8% inter: 11.7% 11.9% 0.1%\n",
      "\u001b[1;36m[libx264 @ 0x556193326f40] \u001b[0mi16 v,h,dc,p: 60%  0% 20% 20%\n",
      "\u001b[1;36m[libx264 @ 0x556193326f40] \u001b[0mi8 v,h,dc,ddl,ddr,vr,hd,vl,hu: 41%  8% 13%  4%  5% 10%  4% 12%  4%\n",
      "\u001b[1;36m[libx264 @ 0x556193326f40] \u001b[0mi4 v,h,dc,ddl,ddr,vr,hd,vl,hu: 22% 14%  9%  1%  9% 35%  5%  2%  2%\n",
      "\u001b[1;36m[libx264 @ 0x556193326f40] \u001b[0mi8c dc,h,v,p: 48% 12% 32%  7%\n",
      "\u001b[1;36m[libx264 @ 0x556193326f40] \u001b[0mWeighted P-Frames: Y:0.0% UV:0.0%\n",
      "\u001b[1;36m[libx264 @ 0x556193326f40] \u001b[0mref P L0: 68.9% 18.7%  9.8%  2.7%\n",
      "\u001b[1;36m[libx264 @ 0x556193326f40] \u001b[0mref B L0: 90.7%  8.2%  1.1%\n",
      "\u001b[1;36m[libx264 @ 0x556193326f40] \u001b[0mref B L1: 96.8%  3.2%\n",
      "\u001b[1;36m[libx264 @ 0x556193326f40] \u001b[0mkb/s:123.10\n",
      "\u001b[1;36m[aac @ 0x556193329840] \u001b[0mQavg: 12527.157\n"
     ]
    }
   ],
   "source": [
    "%cd $wav2lip_dir\n",
    "!python inference.py --checkpoint_path checkpoints/wav2lip_gan.pth --face $input_video_path --audio $input_audio_path"
   ]
  },
  {
   "cell_type": "code",
   "execution_count": 5,
   "metadata": {},
   "outputs": [
    {
     "name": "stdout",
     "output_type": "stream",
     "text": [
      "/root/repositories/motion-wav2lip-codeformer/Wav2Lip\n"
     ]
    },
    {
     "name": "stdout",
     "output_type": "stream",
     "text": [
      "FPS:  29.916666666666668 Frames:  207\n"
     ]
    },
    {
     "name": "stderr",
     "output_type": "stream",
     "text": [
      "100%|██████████| 207/207 [00:00<00:00, 989.58it/s] \n"
     ]
    }
   ],
   "source": [
    "%cd $wav2lip_dir\n",
    "\n",
    "import cv2\n",
    "from tqdm import tqdm\n",
    "from os import path\n",
    "import os\n",
    "\n",
    "vidcap = cv2.VideoCapture(str(wav2lip_result_voice_path))\n",
    "numberOfFrames = int(vidcap.get(cv2.CAP_PROP_FRAME_COUNT))\n",
    "fps = vidcap.get(cv2.CAP_PROP_FPS)\n",
    "print(\"FPS: \", fps, \"Frames: \", numberOfFrames)\n",
    "\n",
    "for frameNumber in tqdm(range(numberOfFrames)):\n",
    "    _,image = vidcap.read()\n",
    "    frame_output_path = str(images_dir / str(str(frameNumber).zfill(4)+'.jpg'))\n",
    "    cv2.imwrite(frame_output_path, image)"
   ]
  },
  {
   "cell_type": "code",
   "execution_count": 6,
   "metadata": {},
   "outputs": [
    {
     "name": "stdout",
     "output_type": "stream",
     "text": [
      "/root/repositories/motion-wav2lip-codeformer/CodeFormer\n"
     ]
    },
    {
     "name": "stderr",
     "output_type": "stream",
     "text": [
      "/root/repositories/motion-wav2lip-codeformer/.venv/lib/python3.11/site-packages/IPython/core/magics/osm.py:417: UserWarning: using dhist requires you to install the `pickleshare` library.\n",
      "  self.shell.db['dhist'] = compress_dhist(dhist)[-100:]\n"
     ]
    }
   ],
   "source": [
    "%cd $codeformer_dir\n",
    "\n",
    "import cv2\n",
    "def imread(img_path):\n",
    "  img = cv2.imread(img_path)\n",
    "  img = cv2.cvtColor(img, cv2.COLOR_BGR2RGB)\n",
    "  return img"
   ]
  },
  {
   "cell_type": "code",
   "execution_count": 7,
   "metadata": {},
   "outputs": [
    {
     "name": "stdout",
     "output_type": "stream",
     "text": [
      "/root/repositories/motion-wav2lip-codeformer/CodeFormer\n",
      "Face detection model: retinaface_resnet50\n",
      "Background upsampling: True, Face upsampling: False\n",
      "[1/207] Processing: 0000.jpg\n",
      "\tdetect 1 faces\n",
      "[2/207] Processing: 0001.jpg\n",
      "\tdetect 1 faces\n",
      "[3/207] Processing: 0002.jpg\n",
      "\tdetect 1 faces\n",
      "[4/207] Processing: 0003.jpg\n",
      "\tdetect 1 faces\n",
      "[5/207] Processing: 0004.jpg\n",
      "\tdetect 1 faces\n",
      "[6/207] Processing: 0005.jpg\n",
      "\tdetect 1 faces\n",
      "[7/207] Processing: 0006.jpg\n",
      "\tdetect 1 faces\n",
      "[8/207] Processing: 0007.jpg\n",
      "\tdetect 1 faces\n",
      "[9/207] Processing: 0008.jpg\n",
      "\tdetect 1 faces\n",
      "[10/207] Processing: 0009.jpg\n",
      "\tdetect 1 faces\n",
      "[11/207] Processing: 0010.jpg\n",
      "\tdetect 1 faces\n",
      "[12/207] Processing: 0011.jpg\n",
      "\tdetect 1 faces\n",
      "[13/207] Processing: 0012.jpg\n",
      "\tdetect 1 faces\n",
      "[14/207] Processing: 0013.jpg\n",
      "\tdetect 1 faces\n",
      "[15/207] Processing: 0014.jpg\n",
      "\tdetect 1 faces\n",
      "[16/207] Processing: 0015.jpg\n",
      "\tdetect 1 faces\n",
      "[17/207] Processing: 0016.jpg\n",
      "\tdetect 1 faces\n",
      "[18/207] Processing: 0017.jpg\n",
      "\tdetect 1 faces\n",
      "[19/207] Processing: 0018.jpg\n",
      "\tdetect 1 faces\n",
      "[20/207] Processing: 0019.jpg\n",
      "\tdetect 1 faces\n",
      "[21/207] Processing: 0020.jpg\n",
      "\tdetect 1 faces\n",
      "[22/207] Processing: 0021.jpg\n",
      "\tdetect 1 faces\n",
      "[23/207] Processing: 0022.jpg\n",
      "\tdetect 1 faces\n",
      "[24/207] Processing: 0023.jpg\n",
      "\tdetect 1 faces\n",
      "[25/207] Processing: 0024.jpg\n",
      "\tdetect 1 faces\n",
      "[26/207] Processing: 0025.jpg\n",
      "\tdetect 1 faces\n",
      "[27/207] Processing: 0026.jpg\n",
      "\tdetect 1 faces\n",
      "[28/207] Processing: 0027.jpg\n",
      "\tdetect 1 faces\n",
      "[29/207] Processing: 0028.jpg\n",
      "\tdetect 1 faces\n",
      "[30/207] Processing: 0029.jpg\n",
      "\tdetect 1 faces\n",
      "[31/207] Processing: 0030.jpg\n",
      "\tdetect 1 faces\n",
      "[32/207] Processing: 0031.jpg\n",
      "\tdetect 1 faces\n",
      "[33/207] Processing: 0032.jpg\n",
      "\tdetect 1 faces\n",
      "[34/207] Processing: 0033.jpg\n",
      "\tdetect 1 faces\n",
      "[35/207] Processing: 0034.jpg\n",
      "\tdetect 1 faces\n",
      "[36/207] Processing: 0035.jpg\n",
      "\tdetect 1 faces\n",
      "[37/207] Processing: 0036.jpg\n",
      "\tdetect 1 faces\n",
      "[38/207] Processing: 0037.jpg\n",
      "\tdetect 1 faces\n",
      "[39/207] Processing: 0038.jpg\n",
      "\tdetect 1 faces\n",
      "[40/207] Processing: 0039.jpg\n",
      "\tdetect 1 faces\n",
      "[41/207] Processing: 0040.jpg\n",
      "\tdetect 1 faces\n",
      "[42/207] Processing: 0041.jpg\n",
      "\tdetect 1 faces\n",
      "[43/207] Processing: 0042.jpg\n",
      "\tdetect 1 faces\n",
      "[44/207] Processing: 0043.jpg\n",
      "\tdetect 1 faces\n",
      "[45/207] Processing: 0044.jpg\n",
      "\tdetect 1 faces\n",
      "[46/207] Processing: 0045.jpg\n",
      "\tdetect 1 faces\n",
      "[47/207] Processing: 0046.jpg\n",
      "\tdetect 1 faces\n",
      "[48/207] Processing: 0047.jpg\n",
      "\tdetect 1 faces\n",
      "[49/207] Processing: 0048.jpg\n",
      "\tdetect 1 faces\n",
      "[50/207] Processing: 0049.jpg\n",
      "\tdetect 1 faces\n",
      "[51/207] Processing: 0050.jpg\n",
      "\tdetect 1 faces\n",
      "[52/207] Processing: 0051.jpg\n",
      "\tdetect 1 faces\n",
      "[53/207] Processing: 0052.jpg\n",
      "\tdetect 1 faces\n",
      "[54/207] Processing: 0053.jpg\n",
      "\tdetect 1 faces\n",
      "[55/207] Processing: 0054.jpg\n",
      "\tdetect 1 faces\n",
      "[56/207] Processing: 0055.jpg\n",
      "\tdetect 1 faces\n",
      "[57/207] Processing: 0056.jpg\n",
      "\tdetect 1 faces\n",
      "[58/207] Processing: 0057.jpg\n",
      "\tdetect 1 faces\n",
      "[59/207] Processing: 0058.jpg\n",
      "\tdetect 1 faces\n",
      "[60/207] Processing: 0059.jpg\n",
      "\tdetect 1 faces\n",
      "[61/207] Processing: 0060.jpg\n",
      "\tdetect 1 faces\n",
      "[62/207] Processing: 0061.jpg\n",
      "\tdetect 1 faces\n",
      "[63/207] Processing: 0062.jpg\n",
      "\tdetect 1 faces\n",
      "[64/207] Processing: 0063.jpg\n",
      "\tdetect 1 faces\n",
      "[65/207] Processing: 0064.jpg\n",
      "\tdetect 1 faces\n",
      "[66/207] Processing: 0065.jpg\n",
      "\tdetect 1 faces\n",
      "[67/207] Processing: 0066.jpg\n",
      "\tdetect 1 faces\n",
      "[68/207] Processing: 0067.jpg\n",
      "\tdetect 1 faces\n",
      "[69/207] Processing: 0068.jpg\n",
      "\tdetect 1 faces\n",
      "[70/207] Processing: 0069.jpg\n",
      "\tdetect 1 faces\n",
      "[71/207] Processing: 0070.jpg\n",
      "\tdetect 1 faces\n",
      "[72/207] Processing: 0071.jpg\n",
      "\tdetect 1 faces\n",
      "[73/207] Processing: 0072.jpg\n",
      "\tdetect 1 faces\n",
      "[74/207] Processing: 0073.jpg\n",
      "\tdetect 1 faces\n",
      "[75/207] Processing: 0074.jpg\n",
      "\tdetect 1 faces\n",
      "[76/207] Processing: 0075.jpg\n",
      "\tdetect 1 faces\n",
      "[77/207] Processing: 0076.jpg\n",
      "\tdetect 1 faces\n",
      "[78/207] Processing: 0077.jpg\n",
      "\tdetect 1 faces\n",
      "[79/207] Processing: 0078.jpg\n",
      "\tdetect 1 faces\n",
      "[80/207] Processing: 0079.jpg\n",
      "\tdetect 1 faces\n",
      "[81/207] Processing: 0080.jpg\n",
      "\tdetect 1 faces\n",
      "[82/207] Processing: 0081.jpg\n",
      "\tdetect 1 faces\n",
      "[83/207] Processing: 0082.jpg\n",
      "\tdetect 1 faces\n",
      "[84/207] Processing: 0083.jpg\n",
      "\tdetect 1 faces\n",
      "[85/207] Processing: 0084.jpg\n",
      "\tdetect 1 faces\n",
      "[86/207] Processing: 0085.jpg\n",
      "\tdetect 1 faces\n",
      "[87/207] Processing: 0086.jpg\n",
      "\tdetect 1 faces\n",
      "[88/207] Processing: 0087.jpg\n",
      "\tdetect 1 faces\n",
      "[89/207] Processing: 0088.jpg\n",
      "\tdetect 1 faces\n",
      "[90/207] Processing: 0089.jpg\n",
      "\tdetect 1 faces\n",
      "[91/207] Processing: 0090.jpg\n",
      "\tdetect 1 faces\n",
      "[92/207] Processing: 0091.jpg\n",
      "\tdetect 1 faces\n",
      "[93/207] Processing: 0092.jpg\n",
      "\tdetect 1 faces\n",
      "[94/207] Processing: 0093.jpg\n",
      "\tdetect 1 faces\n",
      "[95/207] Processing: 0094.jpg\n",
      "\tdetect 1 faces\n",
      "[96/207] Processing: 0095.jpg\n",
      "\tdetect 1 faces\n",
      "[97/207] Processing: 0096.jpg\n",
      "\tdetect 1 faces\n",
      "[98/207] Processing: 0097.jpg\n",
      "\tdetect 1 faces\n",
      "[99/207] Processing: 0098.jpg\n",
      "\tdetect 1 faces\n",
      "[100/207] Processing: 0099.jpg\n",
      "\tdetect 1 faces\n",
      "[101/207] Processing: 0100.jpg\n",
      "\tdetect 1 faces\n",
      "[102/207] Processing: 0101.jpg\n",
      "\tdetect 1 faces\n",
      "[103/207] Processing: 0102.jpg\n",
      "\tdetect 1 faces\n",
      "[104/207] Processing: 0103.jpg\n",
      "\tdetect 1 faces\n",
      "[105/207] Processing: 0104.jpg\n",
      "\tdetect 1 faces\n",
      "[106/207] Processing: 0105.jpg\n",
      "\tdetect 1 faces\n",
      "[107/207] Processing: 0106.jpg\n",
      "\tdetect 1 faces\n",
      "[108/207] Processing: 0107.jpg\n",
      "\tdetect 1 faces\n",
      "[109/207] Processing: 0108.jpg\n",
      "\tdetect 1 faces\n",
      "[110/207] Processing: 0109.jpg\n",
      "\tdetect 1 faces\n",
      "[111/207] Processing: 0110.jpg\n",
      "\tdetect 1 faces\n",
      "[112/207] Processing: 0111.jpg\n",
      "\tdetect 1 faces\n",
      "[113/207] Processing: 0112.jpg\n",
      "\tdetect 1 faces\n",
      "[114/207] Processing: 0113.jpg\n",
      "\tdetect 1 faces\n",
      "[115/207] Processing: 0114.jpg\n",
      "\tdetect 1 faces\n",
      "[116/207] Processing: 0115.jpg\n",
      "\tdetect 1 faces\n",
      "[117/207] Processing: 0116.jpg\n",
      "\tdetect 1 faces\n",
      "[118/207] Processing: 0117.jpg\n",
      "\tdetect 1 faces\n",
      "[119/207] Processing: 0118.jpg\n",
      "\tdetect 1 faces\n",
      "[120/207] Processing: 0119.jpg\n",
      "\tdetect 1 faces\n",
      "[121/207] Processing: 0120.jpg\n",
      "\tdetect 1 faces\n",
      "[122/207] Processing: 0121.jpg\n",
      "\tdetect 1 faces\n",
      "[123/207] Processing: 0122.jpg\n",
      "\tdetect 1 faces\n",
      "[124/207] Processing: 0123.jpg\n",
      "\tdetect 1 faces\n",
      "[125/207] Processing: 0124.jpg\n",
      "\tdetect 1 faces\n",
      "[126/207] Processing: 0125.jpg\n",
      "\tdetect 1 faces\n",
      "[127/207] Processing: 0126.jpg\n",
      "\tdetect 1 faces\n",
      "[128/207] Processing: 0127.jpg\n",
      "\tdetect 1 faces\n",
      "[129/207] Processing: 0128.jpg\n",
      "\tdetect 1 faces\n",
      "[130/207] Processing: 0129.jpg\n",
      "\tdetect 1 faces\n",
      "[131/207] Processing: 0130.jpg\n",
      "\tdetect 1 faces\n",
      "[132/207] Processing: 0131.jpg\n",
      "\tdetect 1 faces\n",
      "[133/207] Processing: 0132.jpg\n",
      "\tdetect 1 faces\n",
      "[134/207] Processing: 0133.jpg\n",
      "\tdetect 1 faces\n",
      "[135/207] Processing: 0134.jpg\n",
      "\tdetect 1 faces\n",
      "[136/207] Processing: 0135.jpg\n",
      "\tdetect 1 faces\n",
      "[137/207] Processing: 0136.jpg\n",
      "\tdetect 1 faces\n",
      "[138/207] Processing: 0137.jpg\n",
      "\tdetect 1 faces\n",
      "[139/207] Processing: 0138.jpg\n",
      "\tdetect 1 faces\n",
      "[140/207] Processing: 0139.jpg\n",
      "\tdetect 1 faces\n",
      "[141/207] Processing: 0140.jpg\n",
      "\tdetect 1 faces\n",
      "[142/207] Processing: 0141.jpg\n",
      "\tdetect 1 faces\n",
      "[143/207] Processing: 0142.jpg\n",
      "\tdetect 1 faces\n",
      "[144/207] Processing: 0143.jpg\n",
      "\tdetect 1 faces\n",
      "[145/207] Processing: 0144.jpg\n",
      "\tdetect 1 faces\n",
      "[146/207] Processing: 0145.jpg\n",
      "\tdetect 1 faces\n",
      "[147/207] Processing: 0146.jpg\n",
      "\tdetect 1 faces\n",
      "[148/207] Processing: 0147.jpg\n",
      "\tdetect 1 faces\n",
      "[149/207] Processing: 0148.jpg\n",
      "\tdetect 1 faces\n",
      "[150/207] Processing: 0149.jpg\n",
      "\tdetect 1 faces\n",
      "[151/207] Processing: 0150.jpg\n",
      "\tdetect 1 faces\n",
      "[152/207] Processing: 0151.jpg\n",
      "\tdetect 1 faces\n",
      "[153/207] Processing: 0152.jpg\n",
      "\tdetect 1 faces\n",
      "[154/207] Processing: 0153.jpg\n",
      "\tdetect 1 faces\n",
      "[155/207] Processing: 0154.jpg\n",
      "\tdetect 1 faces\n",
      "[156/207] Processing: 0155.jpg\n",
      "\tdetect 1 faces\n",
      "[157/207] Processing: 0156.jpg\n",
      "\tdetect 1 faces\n",
      "[158/207] Processing: 0157.jpg\n",
      "\tdetect 1 faces\n",
      "[159/207] Processing: 0158.jpg\n",
      "\tdetect 1 faces\n",
      "[160/207] Processing: 0159.jpg\n",
      "\tdetect 1 faces\n",
      "[161/207] Processing: 0160.jpg\n",
      "\tdetect 1 faces\n",
      "[162/207] Processing: 0161.jpg\n",
      "\tdetect 1 faces\n",
      "[163/207] Processing: 0162.jpg\n",
      "\tdetect 1 faces\n",
      "[164/207] Processing: 0163.jpg\n",
      "\tdetect 1 faces\n",
      "[165/207] Processing: 0164.jpg\n",
      "\tdetect 1 faces\n",
      "[166/207] Processing: 0165.jpg\n",
      "\tdetect 1 faces\n",
      "[167/207] Processing: 0166.jpg\n",
      "\tdetect 1 faces\n",
      "[168/207] Processing: 0167.jpg\n",
      "\tdetect 1 faces\n",
      "[169/207] Processing: 0168.jpg\n",
      "\tdetect 1 faces\n",
      "[170/207] Processing: 0169.jpg\n",
      "\tdetect 1 faces\n",
      "[171/207] Processing: 0170.jpg\n",
      "\tdetect 1 faces\n",
      "[172/207] Processing: 0171.jpg\n",
      "\tdetect 1 faces\n",
      "[173/207] Processing: 0172.jpg\n",
      "\tdetect 1 faces\n",
      "[174/207] Processing: 0173.jpg\n",
      "\tdetect 1 faces\n",
      "[175/207] Processing: 0174.jpg\n",
      "\tdetect 1 faces\n",
      "[176/207] Processing: 0175.jpg\n",
      "\tdetect 1 faces\n",
      "[177/207] Processing: 0176.jpg\n",
      "\tdetect 1 faces\n",
      "[178/207] Processing: 0177.jpg\n",
      "\tdetect 1 faces\n",
      "[179/207] Processing: 0178.jpg\n",
      "\tdetect 1 faces\n",
      "[180/207] Processing: 0179.jpg\n",
      "\tdetect 1 faces\n",
      "[181/207] Processing: 0180.jpg\n",
      "\tdetect 1 faces\n",
      "[182/207] Processing: 0181.jpg\n",
      "\tdetect 1 faces\n",
      "[183/207] Processing: 0182.jpg\n",
      "\tdetect 1 faces\n",
      "[184/207] Processing: 0183.jpg\n",
      "\tdetect 1 faces\n",
      "[185/207] Processing: 0184.jpg\n",
      "\tdetect 1 faces\n",
      "[186/207] Processing: 0185.jpg\n",
      "\tdetect 1 faces\n",
      "[187/207] Processing: 0186.jpg\n",
      "\tdetect 1 faces\n",
      "[188/207] Processing: 0187.jpg\n",
      "\tdetect 1 faces\n",
      "[189/207] Processing: 0188.jpg\n",
      "\tdetect 1 faces\n",
      "[190/207] Processing: 0189.jpg\n",
      "\tdetect 1 faces\n",
      "[191/207] Processing: 0190.jpg\n",
      "\tdetect 1 faces\n",
      "[192/207] Processing: 0191.jpg\n",
      "\tdetect 1 faces\n",
      "[193/207] Processing: 0192.jpg\n",
      "\tdetect 1 faces\n",
      "[194/207] Processing: 0193.jpg\n",
      "\tdetect 1 faces\n",
      "[195/207] Processing: 0194.jpg\n",
      "\tdetect 1 faces\n",
      "[196/207] Processing: 0195.jpg\n",
      "\tdetect 1 faces\n",
      "[197/207] Processing: 0196.jpg\n",
      "\tdetect 1 faces\n",
      "[198/207] Processing: 0197.jpg\n",
      "\tdetect 1 faces\n",
      "[199/207] Processing: 0198.jpg\n",
      "\tdetect 1 faces\n",
      "[200/207] Processing: 0199.jpg\n",
      "\tdetect 1 faces\n",
      "[201/207] Processing: 0200.jpg\n",
      "\tdetect 1 faces\n",
      "[202/207] Processing: 0201.jpg\n",
      "\tdetect 1 faces\n",
      "[203/207] Processing: 0202.jpg\n",
      "\tdetect 1 faces\n",
      "[204/207] Processing: 0203.jpg\n",
      "\tdetect 1 faces\n",
      "[205/207] Processing: 0204.jpg\n",
      "\tdetect 1 faces\n",
      "[206/207] Processing: 0205.jpg\n",
      "\tdetect 1 faces\n",
      "[207/207] Processing: 0206.jpg\n",
      "\tdetect 1 faces\n",
      "\n",
      "All results are saved in results/images_0.75\n"
     ]
    }
   ],
   "source": [
    "%cd $codeformer_dir\n",
    "\n",
    "!python inference_codeformer.py -w $CODEFORMER_FIDELITY --input_path $images_dir --bg_upsampler realesrgan"
   ]
  },
  {
   "cell_type": "code",
   "execution_count": 8,
   "metadata": {},
   "outputs": [
    {
     "name": "stdout",
     "output_type": "stream",
     "text": [
      "rm: cannot remove '/root/repositories/motion-wav2lip-codeformer/output/batch_0000.avi': No such file or directory\n",
      "rm: cannot remove '/root/repositories/motion-wav2lip-codeformer/output/final.mp4': No such file or directory\n"
     ]
    }
   ],
   "source": [
    "!rm $output_batch_avi_path\n",
    "!rm $output_final_mp4_path"
   ]
  },
  {
   "cell_type": "code",
   "execution_count": 9,
   "metadata": {},
   "outputs": [
    {
     "name": "stderr",
     "output_type": "stream",
     "text": [
      "  0%|          | 0/1 [00:00<?, ?it/s]"
     ]
    },
    {
     "name": "stdout",
     "output_type": "stream",
     "text": [
      "processing  0 600\n"
     ]
    },
    {
     "name": "stderr",
     "output_type": "stream",
     "text": []
    },
    {
     "name": "stderr",
     "output_type": "stream",
     "text": [
      "100%|██████████| 207/207 [00:03<00:00, 56.41it/s]\n",
      "100%|██████████| 1/1 [00:04<00:00,  4.53s/it]\n",
      "ffmpeg version 4.4.2-0ubuntu0.22.04.1 Copyright (c) 2000-2021 the FFmpeg developers\n",
      "  built with gcc 11 (Ubuntu 11.2.0-19ubuntu1)\n",
      "  configuration: --prefix=/usr --extra-version=0ubuntu0.22.04.1 --toolchain=hardened --libdir=/usr/lib/x86_64-linux-gnu --incdir=/usr/include/x86_64-linux-gnu --arch=amd64 --enable-gpl --disable-stripping --enable-gnutls --enable-ladspa --enable-libaom --enable-libass --enable-libbluray --enable-libbs2b --enable-libcaca --enable-libcdio --enable-libcodec2 --enable-libdav1d --enable-libflite --enable-libfontconfig --enable-libfreetype --enable-libfribidi --enable-libgme --enable-libgsm --enable-libjack --enable-libmp3lame --enable-libmysofa --enable-libopenjpeg --enable-libopenmpt --enable-libopus --enable-libpulse --enable-librabbitmq --enable-librubberband --enable-libshine --enable-libsnappy --enable-libsoxr --enable-libspeex --enable-libsrt --enable-libssh --enable-libtheora --enable-libtwolame --enable-libvidstab --enable-libvorbis --enable-libvpx --enable-libwebp --enable-libx265 --enable-libxml2 --enable-libxvid --enable-libzimg --enable-libzmq --enable-libzvbi --enable-lv2 --enable-omx --enable-openal --enable-opencl --enable-opengl --enable-sdl2 --enable-pocketsphinx --enable-librsvg --enable-libmfx --enable-libdc1394 --enable-libdrm --enable-libiec61883 --enable-chromaprint --enable-frei0r --enable-libx264 --enable-shared\n",
      "  libavutil      56. 70.100 / 56. 70.100\n",
      "  libavcodec     58.134.100 / 58.134.100\n",
      "  libavformat    58. 76.100 / 58. 76.100\n",
      "  libavdevice    58. 13.100 / 58. 13.100\n",
      "  libavfilter     7.110.100 /  7.110.100\n",
      "  libswscale      5.  9.100 /  5.  9.100\n",
      "  libswresample   3.  9.100 /  3.  9.100\n",
      "  libpostproc    55.  9.100 / 55.  9.100\n",
      "Input #0, avi, from '/root/repositories/motion-wav2lip-codeformer/output/batch_0000.avi':\n",
      "  Metadata:\n",
      "    software        : Lavf59.27.100\n",
      "  Duration: 00:00:06.90, start: 0.000000, bitrate: 5161 kb/s\n",
      "  Stream #0:0: Video: mpeg4 (Simple Profile) (DIVX / 0x58564944), yuv420p, 1024x1024 [SAR 1:1 DAR 1:1], 5173 kb/s, 30 fps, 30 tbr, 30 tbn, 30 tbc\n",
      "Guessed Channel Layout for Input Stream #1.0 : mono\n",
      "Input #1, wav, from '/root/repositories/motion-wav2lip-codeformer/input/audio.wav':\n",
      "  Duration: 00:00:07.03, bitrate: 352 kb/s\n",
      "  Stream #1:0: Audio: pcm_s16le ([1][0][0][0] / 0x0001), 22050 Hz, mono, s16, 352 kb/s\n",
      "Stream mapping:\n",
      "  Stream #0:0 -> #0:0 (mpeg4 (native) -> h264 (libx264))\n",
      "  Stream #1:0 -> #0:1 (pcm_s16le (native) -> aac (native))\n",
      "Press [q] to stop, [?] for help\n",
      "[libx264 @ 0x55f19528e880] using SAR=1/1\n",
      "[libx264 @ 0x55f19528e880] using cpu capabilities: MMX2 SSE2Fast SSSE3 SSE4.2 AVX FMA3 BMI2 AVX2\n",
      "[libx264 @ 0x55f19528e880] profile High, level 3.2, 4:2:0, 8-bit\n",
      "[libx264 @ 0x55f19528e880] 264 - core 163 r3060 5db6aa6 - H.264/MPEG-4 AVC codec - Copyleft 2003-2021 - http://www.videolan.org/x264.html - options: cabac=1 ref=3 deblock=1:0:0 analyse=0x3:0x113 me=hex subme=7 psy=1 psy_rd=1.00:0.00 mixed_ref=1 me_range=16 chroma_me=1 trellis=1 8x8dct=1 cqm=0 deadzone=21,11 fast_pskip=1 chroma_qp_offset=-2 threads=24 lookahead_threads=4 sliced_threads=0 nr=0 decimate=1 interlaced=0 bluray_compat=0 constrained_intra=0 bframes=3 b_pyramid=2 b_adapt=1 b_bias=0 direct=1 weightb=1 open_gop=0 weightp=2 keyint=250 keyint_min=25 scenecut=40 intra_refresh=0 rc_lookahead=40 rc=crf mbtree=1 crf=23.0 qcomp=0.60 qpmin=0 qpmax=69 qpstep=4 ip_ratio=1.40 aq=1:1.00\n",
      "Output #0, mp4, to '/root/repositories/motion-wav2lip-codeformer/output/final.mp4':\n",
      "  Metadata:\n",
      "    software        : Lavf59.27.100\n",
      "    encoder         : Lavf58.76.100\n",
      "  Stream #0:0: Video: h264 (avc1 / 0x31637661), yuv420p(progressive), 1024x1024 [SAR 1:1 DAR 1:1], q=2-31, 30 fps, 15360 tbn\n",
      "    Metadata:\n",
      "      encoder         : Lavc58.134.100 libx264\n",
      "    Side data:\n",
      "      cpb: bitrate max/min/avg: 0/0/0 buffer size: 0 vbv_delay: N/A\n",
      "  Stream #0:1: Audio: aac (LC) (mp4a / 0x6134706D), 22050 Hz, mono, fltp, 69 kb/s\n",
      "    Metadata:\n",
      "      encoder         : Lavc58.134.100 aac\n",
      "frame=  207 fps=183 q=-1.0 Lsize=    1994kB time=00:00:07.01 bitrate=2329.2kbits/s speed=6.21x    \n",
      "video:1933kB audio:54kB subtitle:0kB other streams:0kB global headers:0kB muxing overhead: 0.341565%\n",
      "[libx264 @ 0x55f19528e880] frame I:2     Avg QP:21.38  size: 33142\n",
      "[libx264 @ 0x55f19528e880] frame P:78    Avg QP:23.43  size: 13866\n",
      "[libx264 @ 0x55f19528e880] frame B:127   Avg QP:26.12  size:  6543\n",
      "[libx264 @ 0x55f19528e880] consecutive B-frames: 17.4%  0.0%  7.2% 75.4%\n",
      "[libx264 @ 0x55f19528e880] mb I  I16..4: 13.8% 85.5%  0.7%\n",
      "[libx264 @ 0x55f19528e880] mb P  I16..4:  2.4% 11.5%  0.3%  P16..4: 46.3%  9.3%  3.8%  0.0%  0.0%    skip:26.4%\n",
      "[libx264 @ 0x55f19528e880] mb B  I16..4:  0.4%  2.6%  0.0%  B16..8: 38.5%  4.4%  0.7%  direct: 1.1%  skip:52.1%  L0:54.6% L1:43.0% BI: 2.4%\n",
      "[libx264 @ 0x55f19528e880] 8x8 transform intra:82.8% inter:89.4%\n",
      "[libx264 @ 0x55f19528e880] coded y,uvDC,uvAC intra: 62.8% 41.9% 1.1% inter: 14.9% 7.6% 0.0%\n",
      "[libx264 @ 0x55f19528e880] i16 v,h,dc,p: 37% 11% 15% 37%\n",
      "[libx264 @ 0x55f19528e880] i8 v,h,dc,ddl,ddr,vr,hd,vl,hu: 29% 12% 30%  3%  7%  6%  5%  5%  2%\n",
      "[libx264 @ 0x55f19528e880] i4 v,h,dc,ddl,ddr,vr,hd,vl,hu: 15%  8%  9%  2% 32% 14% 14%  3%  2%\n",
      "[libx264 @ 0x55f19528e880] i8c dc,h,v,p: 55% 16% 27%  2%\n",
      "[libx264 @ 0x55f19528e880] Weighted P-Frames: Y:0.0% UV:0.0%\n",
      "[libx264 @ 0x55f19528e880] ref P L0: 63.6%  9.3% 19.5%  7.6%\n",
      "[libx264 @ 0x55f19528e880] ref B L0: 85.2% 11.3%  3.5%\n",
      "[libx264 @ 0x55f19528e880] ref B L1: 94.2%  5.8%\n",
      "[libx264 @ 0x55f19528e880] kb/s:2294.25\n",
      "[aac @ 0x55f195290500] Qavg: 12527.157\n"
     ]
    },
    {
     "data": {
      "text/plain": [
       "(None, None)"
      ]
     },
     "execution_count": 9,
     "metadata": {},
     "output_type": "execute_result"
    }
   ],
   "source": [
    "import os\n",
    "import ffmpeg\n",
    "\n",
    "img_fidelity_dir = \"images_\"+str(CODEFORMER_FIDELITY)\n",
    "restored_frames_dir = codeformer_results_dir / str(img_fidelity_dir) / 'final_results'\n",
    "\n",
    "dir_list = os.listdir(restored_frames_dir)\n",
    "dir_list.sort()\n",
    "\n",
    "import cv2\n",
    "import numpy as np\n",
    "\n",
    "batch = 0\n",
    "batchSize = 600\n",
    "from tqdm import tqdm\n",
    "for i in tqdm(range(0, len(dir_list), batchSize)):\n",
    "  img_array = []\n",
    "  start, end = i, i+batchSize\n",
    "  print(\"processing \", start, end)\n",
    "  for filename in  tqdm(dir_list[start:end]):\n",
    "      filename = str(restored_frames_dir / str(filename))\n",
    "      img = cv2.imread(filename)\n",
    "      if img is None:\n",
    "        continue\n",
    "      height, width, layers = img.shape\n",
    "      size = (width,height)\n",
    "      img_array.append(img)\n",
    "\n",
    "\n",
    "  out = cv2.VideoWriter(str(output_dir)+'/batch_'+str(batch).zfill(4)+'.avi',cv2.VideoWriter_fourcc(*'DIVX'), 30, size)\n",
    "  batch = batch + 1\n",
    " \n",
    "  for i in range(len(img_array)):\n",
    "    out.write(img_array[i])\n",
    "  out.release()\n",
    "\n",
    "audio = ffmpeg.input(str(input_audio_path))\n",
    "video = ffmpeg.input(str(output_batch_avi_path))\n",
    "out = ffmpeg.output(video, audio, str(output_final_mp4_path))\n",
    "out.run()  "
   ]
  },
  {
   "cell_type": "code",
   "execution_count": null,
   "metadata": {},
   "outputs": [],
   "source": []
  }
 ],
 "metadata": {
  "kernelspec": {
   "display_name": ".venv",
   "language": "python",
   "name": "python3"
  },
  "language_info": {
   "codemirror_mode": {
    "name": "ipython",
    "version": 3
   },
   "file_extension": ".py",
   "mimetype": "text/x-python",
   "name": "python",
   "nbconvert_exporter": "python",
   "pygments_lexer": "ipython3",
   "version": "3.11.6"
  }
 },
 "nbformat": 4,
 "nbformat_minor": 2
}
